<?xml version="1.0" encoding="UTF-8" standalone="no"?>
<svg
   xmlns:dc="http://purl.org/dc/elements/1.1/"
   xmlns:cc="http://creativecommons.org/ns#"
   xmlns:rdf="http://www.w3.org/1999/02/22-rdf-syntax-ns#"
   xmlns:svg="http://www.w3.org/2000/svg"
   xmlns="http://www.w3.org/2000/svg"
   xmlns:sodipodi="http://sodipodi.sourceforge.net/DTD/sodipodi-0.dtd"
   xmlns:inkscape="http://www.inkscape.org/namespaces/inkscape"
   width="13749.063"
   height="7371.1006"
   id="svg3004"
   version="1.1"
   inkscape:version="0.48.4 r9939"
   sodipodi:docname="6x12_snooker_table.dxf">
  <metadata
     id="metadata3078">
    <rdf:RDF>
      <cc:Work
         rdf:about="">
        <dc:format>image/svg+xml</dc:format>
        <dc:type
           rdf:resource="http://purl.org/dc/dcmitype/StillImage" />
        <dc:title></dc:title>
      </cc:Work>
    </rdf:RDF>
  </metadata>
  <sodipodi:namedview
     pagecolor="#ffffff"
     bordercolor="#666666"
     borderopacity="1"
     objecttolerance="10"
     gridtolerance="10"
     guidetolerance="10"
     inkscape:pageopacity="0"
     inkscape:pageshadow="2"
     inkscape:window-width="1276"
     inkscape:window-height="985"
     id="namedview3076"
     showgrid="false"
     fit-margin-top="0"
     fit-margin-left="0"
     fit-margin-right="0"
     fit-margin-bottom="0"
     inkscape:zoom="0.066100465"
     inkscape:cx="6460.1238"
     inkscape:cy="2394.7383"
     inkscape:window-x="0"
     inkscape:window-y="18"
     inkscape:window-maximized="0"
     inkscape:current-layer="g3022" />
  <desc
     id="desc3006">/home/dan/git_repos/CAD-Things/6x12_snooker_table.dxf - scale = 1.000000</desc>
  <defs
     id="defs3008">
    <marker
       id="DistanceX"
       orient="auto"
       refX="0"
       refY="0"
       style="overflow:visible">
      <path
         d="M 3,-3 -3,3 M 0,-5 0,5"
         style="stroke:#000000;stroke-width:0.5"
         id="path3011"
         inkscape:connector-curvature="0" />
    </marker>
    <pattern
       height="8"
       id="Hatch"
       patternUnits="userSpaceOnUse"
       width="8"
       x="0"
       y="0">
      <path
         d="M8 4 l-4,4"
         linecap="square"
         stroke="#000000"
         stroke-width="0.25"
         id="path3014" />
      <path
         d="M6 2 l-4,4"
         linecap="square"
         stroke="#000000"
         stroke-width="0.25"
         id="path3016" />
      <path
         d="M4 0 l-4,4"
         linecap="square"
         stroke="#000000"
         stroke-width="0.25"
         id="path3018" />
    </pattern>
    <symbol
       id="*Model_Space" />
    <symbol
       id="*Paper_Space" />
  </defs>
  <g
     inkscape:groupmode="layer"
     id="layer1"
     inkscape:label="felt">
    <rect
       style="fill:#008000;stroke:#000000"
       id="rect3085"
       width="13072.291"
       height="6718.002"
       x="267.43613"
       y="396.35965" />
  </g>
  <g
     inkscape:groupmode="layer"
     inkscape:label="table"
     id="g3022"
     transform="translate(6874.5315,2633.1885)">
    <path
       d="m -6322.5,-2097.6378 12645,0"
       style="fill:none;stroke:#000000;stroke-linecap:round"
       id="path3024"
       inkscape:connector-curvature="0" />
    <path
       d="m -6322.5,4202.3622 12645,0"
       style="fill:none;stroke:#000000;stroke-linecap:round"
       id="path3026"
       inkscape:connector-curvature="0" />
    <path
       d="m -6322.5,-2097.6378 0,6300"
       style="fill:none;stroke:#000000;stroke-linecap:round"
       id="path3028"
       inkscape:connector-curvature="0" />
    <path
       d="m 6322.5,-2097.6378 0,6300"
       style="fill:none;stroke:#000000;stroke-linecap:round"
       id="path3030"
       inkscape:connector-curvature="0" />
    <path
       d="m 35.433071,1052.3622 a 35.433071,35.433071 0 1 0 -70.866142,0 35.433071,35.433071 0 1 0 70.866142,0 z"
       style="fill:#000000;stroke:#000000;stroke-linecap:round"
       id="path3032"
       inkscape:connector-curvature="0" />
    <path
       d="m 5232.9331,1052.3622 a 35.4331,35.4331 0 1 0 -70.8662,0 35.4331,35.4331 0 1 0 70.8662,0 z"
       style="fill:#000000;stroke:#000000;stroke-linecap:round"
       id="path3034"
       inkscape:connector-curvature="0" />
    <path
       d="m 3207.9331,1052.3622 a 35.4331,35.4331 0 1 0 -70.8662,0 35.4331,35.4331 0 1 0 70.8662,0 z"
       style="fill:#000000;stroke:#000000;stroke-linecap:round"
       id="path3036"
       inkscape:connector-curvature="0" />
    <path
       d="m -3677.0669,1052.3622 a 35.4331,35.4331 0 1 0 -70.8662,0 35.4331,35.4331 0 1 0 70.8662,0 z"
       style="fill:#000000;stroke:#000000;stroke-linecap:round"
       id="path3038"
       inkscape:connector-curvature="0" />
    <path
       d="m -3712.5,17.362205 a 1035,1035 0 0 0 0,2069.999995"
       style="fill:none;stroke:#ffffff;stroke-linecap:round"
       id="path3040"
       inkscape:connector-curvature="0" />
    <path
       d="m -3712.5,4202.3622 0,-6300"
       style="fill:none;stroke:#ffffff;stroke-linecap:round"
       id="path3042"
       inkscape:connector-curvature="0" />
    <path
       d="m -3677.0669,17.362205 a 35.4331,35.4331 0 1 0 -70.8662,0 35.4331,35.4331 0 1 0 70.8662,0 z"
       style="fill:#000000;stroke:#000000;stroke-linecap:round"
       id="path3044"
       inkscape:connector-curvature="0" />
    <path
       d="m -3677.0669,2087.3622 a 35.4331,35.4331 0 1 0 -70.8662,0 35.4331,35.4331 0 1 0 70.8662,0 z"
       style="fill:#000000;stroke:#000000;stroke-linecap:round"
       id="path3046"
       inkscape:connector-curvature="0" />
    <path
       d="m -6519.685,-2632.6772 a 354.33071,354.33071 0 0 0 -354.3307,354.3307"
       style="fill:none;stroke:#000000;stroke-linecap:round"
       id="path3048"
       inkscape:connector-curvature="0" />
    <path
       d="m -6874.0157,4383.0709 0,-6661.4174"
       style="fill:none;stroke:#000000;stroke-linecap:round"
       id="path3050"
       inkscape:connector-curvature="0" />
    <path
       d="m -6874.0157,4383.0709 a 354.33071,354.33071 0 0 0 354.3307,354.3307"
       style="fill:none;stroke:#000000;stroke-linecap:round"
       id="path3052"
       inkscape:connector-curvature="0" />
    <path
       d="m 6519.685,4737.4016 -13039.37,0"
       style="fill:none;stroke:#000000;stroke-linecap:round"
       id="path3054"
       inkscape:connector-curvature="0" />
    <path
       d="m 6519.685,4737.4016 a 354.33071,354.33071 0 0 0 354.3307,-354.3307"
       style="fill:none;stroke:#000000;stroke-linecap:round"
       id="path3056"
       inkscape:connector-curvature="0" />
    <path
       d="m -6519.685,-2632.6772 13039.37,0"
       style="fill:none;stroke:#000000;stroke-linecap:round"
       id="path3058"
       inkscape:connector-curvature="0" />
    <path
       d="m 6874.0157,-2278.3465 0,6661.4174"
       style="fill:none;stroke:#000000;stroke-linecap:round"
       id="path3060"
       inkscape:connector-curvature="0" />
    <path
       d="M 6874.0157,-2278.3465 A 354.33071,354.33071 0 0 0 6519.685,-2632.6772"
       style="fill:none;stroke:#000000;stroke-linecap:round"
       id="path3062"
       inkscape:connector-curvature="0" />
    <path
       d="m -6165,-2097.6378 a 157.5,157.5 0 1 0 -315,0 157.5,157.5 0 1 0 315,0 z"
       style="fill:#333333;stroke:#000000;stroke-linecap:round"
       id="path3064"
       inkscape:connector-curvature="0" />
    <path
       d="m 157.5,-2097.6378 a 157.5,157.5 0 1 0 -315,0 157.5,157.5 0 1 0 315,0 z"
       style="fill:#333333;stroke:#000000;stroke-linecap:round"
       id="path3066"
       inkscape:connector-curvature="0" />
    <path
       d="m 6480,-2097.6378 a 157.5,157.5 0 1 0 -315,0 157.5,157.5 0 1 0 315,0 z"
       style="fill:#333333;stroke:#000000;stroke-linecap:round"
       id="path3068"
       inkscape:connector-curvature="0" />
    <path
       d="m 6480,4202.3622 a 157.5,157.5 0 1 0 -315,0 157.5,157.5 0 1 0 315,0 z"
       style="fill:#333333;stroke:#000000;stroke-linecap:round"
       id="path3070"
       inkscape:connector-curvature="0" />
    <path
       d="m 157.5,4202.3622 a 157.5,157.5 0 1 0 -315,0 157.5,157.5 0 1 0 315,0 z"
       style="fill:#333333;stroke:#000000;stroke-linecap:round"
       id="path3072"
       inkscape:connector-curvature="0" />
    <path
       d="m -6165,4202.3622 a 157.5,157.5 0 1 0 -315,0 157.5,157.5 0 1 0 315,0 z"
       style="fill:#333333;stroke:#000000;stroke-linecap:round"
       id="path3074"
       inkscape:connector-curvature="0" />
    <path
       style="fill:#501616;stroke:#000000;stroke-width:10.69745540999999989"
       d="M 232.27855,7339.1922 C 152.67166,7308.561 78.42464,7237.6094 40.871356,7156.2804 L 9.7501209,7088.8813 6.6086729,3724.5315 C 4.2906017,1241.9813 6.6588932,343.42787 15.64447,296.26017 31.236141,214.41534 55.469313,167.72478 110.67407,113.16463 166.40898,58.080515 231.84331,25.135344 311.38996,12.10729 400.7149,-2.5222396 13348.785,-1.605299 13439.023,13.036947 c 37.483,6.082067 87.283,20.818935 110.668,32.748597 58.684,29.938481 127.458,101.398786 158.711,164.910856 l 26.183,53.20828 0,3417.83702 0,3417.837 -28.025,59.7611 c -34.132,72.7832 -88.025,128.4534 -162.212,167.5608 l -55.804,29.4171 -6600.33,2.1352 c -6577.34413,2.1277 -6600.52368,2.0606 -6655.93545,-19.2607 z m 392.36203,-359.9764 c 42.85984,-21.5336 85.79287,-79.8648 85.79287,-116.563 l 0,-25.1617 2999.44575,0 2999.4457,0 7.0536,37.5988 c 14.7959,78.8689 105.3836,134.7003 192.1451,118.4237 63.4414,-11.9017 124.106,-77.4497 124.106,-134.0964 l 0,-21.9261 2999.4454,0 2999.446,0 7.054,37.5988 c 9.195,49.016 69.174,108.995 118.191,118.1905 110.969,20.818 199.843,-51.3597 199.843,-162.3 0,-76.6558 -64.833,-153.9512 -129.129,-153.9512 l -22.419,0 0,-2988.6016 0,-2988.60161 33.332,-6.66624 c 49.613,-9.92269 116.147,-81.08205 117.617,-125.79343 3.073,-93.51016 -21.114,-145.76047 -80.526,-173.9533 -97.707,-46.36516 -214.986,3.74773 -236.343,100.98931 l -6.939,31.59001 -2999.786,0 -2999.7864,0 0,-22.41874 c 0,-29.70215 -27.4374,-74.3985 -61.0086,-99.3848 -29.7623,-22.15142 -104.4775,-34.389 -146.1307,-23.9347 -42.8856,10.7636 -91.0423,58.52892 -104.587,103.73678 l -12.5839,42.00146 -2998.943,0 -2998.94295,0 0,-27.15787 c 0,-16.68809 -15.73494,-44.02656 -40.81531,-70.91405 -35.24352,-37.78291 -48.36963,-44.48204 -96.15323,-49.07344 -65.90329,-6.33247 -110.10588,9.55053 -146.30497,52.5707 -74.83234,88.93319 -26.44088,240.11506 83.45714,260.73205 l 39.35454,7.38296 0,2988.74831 0,2988.7482 -25.16167,0 c -36.46397,0 -94.83771,42.7411 -117.17201,85.7929 -24.23171,46.7093 -19.12019,128.573 10.55654,169.0686 27.30465,37.2587 84.72291,66.0289 131.77714,66.0289 20.5926,0 54.19363,-8.4167 74.66896,-18.7038 l 0,0 z"
       id="path3082"
       inkscape:connector-curvature="0"
       transform="translate(-6874.5315,-2633.1885)" />
  </g>
</svg>
